ffmpeg started on 2026-04-01 at 13:05:47
Report written to "D:\Convert\FFMetrics\reports\psnr_report-6.txt"
Log level: 32
Command line:
ffmpeg -hide_banner -nostdin -r 24000/1001 -i "F:\\Convert\\files\\[DC] Make Heroine ga Oosugiru - 07_Telegram_HEVC(298).mkv" -r 24000/1001 -i "F:\\Convert\\files\\[DC] Make Heroine ga Oosugiru - 07_Telegram.mp4" -lavfi "[0:v]settb=AVTB,setpts=PTS-STARTPTS,format=pix_fmts=yuv420p10le,fps=24000/1001,scale=1920:1080:flags=lanczos:param0=3:out_range=limited:out_color_matrix=bt709:out_chroma_loc=left,setsar=1/1,setdar=(1920/1080)*(1/1),colorspace=format=yuv420p10:range=tv:primaries=bt709:trc=bt709:space=bt709:fast=0[main];[1:v]settb=AVTB,setpts=PTS-STARTPTS,format=pix_fmts=yuv420p,fps=24000/1001,scale=1920:1080:flags=lanczos:param0=3:out_range=limited:out_color_matrix=bt709:out_chroma_loc=left,setsar=1/1,setdar=(1920/1080)*(1/1),colorspace=format=yuv420p:range=tv:primaries=bt709:trc=bt709:space=bt709:fast=0[ref];[main][ref]psnr=eof_action=endall:stats_file='D\\:/Convert/FFMetrics/logs/psnr_logfile-6.txt'" -f null -
Input #0, matroska,webm, from 'F:\Convert\files\[DC] Make Heroine ga Oosugiru - 07_Telegram_HEVC(298).mkv':
  Metadata:
    COMPATIBLE_BRANDS: isomiso2avc1mp41
    MAJOR_BRAND     : isom
    MINOR_VERSION   : 512
    ENCODER         : Lavf61.7.100
  Duration: 00:24:06.79, start: -0.021000, bitrate: 1010 kb/s
  Stream #0:0: Video: hevc (Main 10), yuv420p10le(tv, bt709, progressive), 1920x1080 [SAR 1:1 DAR 16:9], 23.98 fps, 23.98 tbr, 1k tbn (default)
      Metadata:
        HANDLER_NAME    : VideoHandler
        VENDOR_ID       : [0][0][0][0]
        ENCODER         : Lavc61.19.100 libx265
        BPS             : 813713
        DURATION        : 00:24:06.569708333
        NUMBER_OF_FRAMES: 34683
        NUMBER_OF_BYTES : 147136665
        _STATISTICS_WRITING_APP: mkvpropedit v94.0 ('Initiate') 64-bit
        _STATISTICS_WRITING_DATE_UTC: 2026-03-31 07:53:53
        _STATISTICS_TAGS: BPS DURATION NUMBER_OF_FRAMES NUMBER_OF_BYTES
  Stream #0:1: Audio: aac (LC), 48000 Hz, stereo, fltp (default)
      Metadata:
        HANDLER_NAME    : SoundHandler
        VENDOR_ID       : [0][0][0][0]
        ENCODER         : Lavc61.19.100 aac
        BPS             : 193194
        DURATION        : 00:24:06.784000000
        NUMBER_OF_FRAMES: 67819
        NUMBER_OF_BYTES : 34938755
        _STATISTICS_WRITING_APP: mkvpropedit v94.0 ('Initiate') 64-bit
        _STATISTICS_WRITING_DATE_UTC: 2026-03-31 07:53:53
        _STATISTICS_TAGS: BPS DURATION NUMBER_OF_FRAMES NUMBER_OF_BYTES
Input #1, mov,mp4,m4a,3gp,3g2,mj2, from 'F:\Convert\files\[DC] Make Heroine ga Oosugiru - 07_Telegram.mp4':
  Metadata:
    major_brand     : isom
    minor_version   : 512
    compatible_brands: isomiso2avc1mp41
    encoder         : Lavf60.16.100
  Duration: 00:24:06.74, start: 0.000000, bitrate: 3764 kb/s
  Stream #1:0[0x1](und): Video: h264 (High) (avc1 / 0x31637661), yuv420p(tv, bt709, progressive), 1920x1080 [SAR 1:1 DAR 16:9], 3616 kb/s, 23.98 fps, 23.98 tbr, 24k tbn (default)
      Metadata:
        handler_name    : VideoHandler
        vendor_id       : [0][0][0][0]
        encoder         : Lavc60.31.102 h264_qsv
  Stream #1:1[0x2](und): Audio: aac (HE-AACv2) (mp4a / 0x6134706D), 48000 Hz, stereo, fltp, 144 kb/s (default)
      Metadata:
        handler_name    : SoundHandler
        vendor_id       : [0][0][0][0]
Stream mapping:
  Stream #0:0 (hevc) -> settb:default
  Stream #1:0 (h264) -> settb:default
  psnr:default -> Stream #0:0 (wrapped_avframe)
  Stream #0:1 -> #0:1 (aac (native) -> pcm_s16le (native))
Output #0, null, to 'pipe:':
  Metadata:
    COMPATIBLE_BRANDS: isomiso2avc1mp41
    MAJOR_BRAND     : isom
    MINOR_VERSION   : 512
    encoder         : Lavf61.7.100
  Stream #0:0: Video: wrapped_avframe, yuv420p10le(tv, bt709, progressive), 1920x1080 [SAR 1:1 DAR 16:9], q=2-31, 200 kb/s, 23.98 fps, 23.98 tbn
      Metadata:
        encoder         : Lavc61.19.100 wrapped_avframe
  Stream #0:1: Audio: pcm_s16le, 48000 Hz, stereo, s16, 1536 kb/s (default)
      Metadata:
        HANDLER_NAME    : SoundHandler
        VENDOR_ID       : [0][0][0][0]
        _STATISTICS_TAGS: BPS DURATION NUMBER_OF_FRAMES NUMBER_OF_BYTES
        BPS             : 193194
        DURATION        : 00:24:06.784000000
        NUMBER_OF_FRAMES: 67819
        NUMBER_OF_BYTES : 34938755
        _STATISTICS_WRITING_APP: mkvpropedit v94.0 ('Initiate') 64-bit
        _STATISTICS_WRITING_DATE_UTC: 2026-03-31 07:53:53
        encoder         : Lavc61.19.100 pcm_s16le
frame=  137 fps=0.0 q=-0.0 size=N/A time=00:00:05.71 bitrate=N/A speed=  11x    frame=  327 fps=316 q=-0.0 size=N/A time=00:00:13.63 bitrate=N/A speed=13.2x    frame=  534 fps=346 q=-0.0 size=N/A time=00:00:22.27 bitrate=N/A speed=14.4x    frame=  745 fps=360 q=-0.0 size=N/A time=00:00:31.07 bitrate=N/A speed=  15x    frame=  922 fps=357 q=-0.0 size=N/A time=00:00:38.45 bitrate=N/A speed=14.9x    frame= 1070 fps=346 q=-0.0 size=N/A time=00:00:44.62 bitrate=N/A speed=14.4x    frame= 1227 fps=340 q=-0.0 size=N/A time=00:00:51.17 bitrate=N/A speed=14.2x    frame= 1394 fps=338 q=-0.0 size=N/A time=00:00:58.14 bitrate=N/A speed=14.1x    frame= 1539 fps=332 q=-0.0 size=N/A time=00:01:04.18 bitrate=N/A speed=13.8x    frame= 1683 fps=326 q=-0.0 size=N/A time=00:01:10.19 bitrate=N/A speed=13.6x    frame= 1847 fps=325 q=-0.0 size=N/A time=00:01:17.03 bitrate=N/A speed=13.6x    frame= 2013 fps=325 q=-0.0 size=N/A time=00:01:23.95 bitrate=N/A speed=13.6x    frame= 2114 fps=315 q=-0.0 size=N/A time=00:01:28.17 bitrate=N/A speed=13.1x    frame= 2266 fps=314 q=-0.0 size=N/A time=00:01:34.51 bitrate=N/A speed=13.1x    frame= 2406 fps=311 q=-0.0 size=N/A time=00:01:40.35 bitrate=N/A speed=  13x    frame= 2534 fps=307 q=-0.0 size=N/A time=00:01:45.68 bitrate=N/A speed=12.8x    frame= 2686 fps=307 q=-0.0 size=N/A time=00:01:52.02 bitrate=N/A speed=12.8x    frame= 2865 fps=309 q=-0.0 size=N/A time=00:01:59.49 bitrate=N/A speed=12.9x    frame= 3044 fps=311 q=-0.0 size=N/A time=00:02:06.96 bitrate=N/A speed=  13x    frame= 3239 fps=314 q=-0.0 size=N/A time=00:02:15.09 bitrate=N/A speed=13.1x    frame= 3434 fps=317 q=-0.0 size=N/A time=00:02:23.22 bitrate=N/A speed=13.2x    frame= 3624 fps=320 q=-0.0 size=N/A time=00:02:31.15 bitrate=N/A speed=13.3x    frame= 3817 fps=322 q=-0.0 size=N/A time=00:02:39.20 bitrate=N/A speed=13.4x    frame= 4014 fps=324 q=-0.0 size=N/A time=00:02:47.41 bitrate=N/A speed=13.5x    frame= 4209 fps=327 q=-0.0 size=N/A time=00:02:55.55 bitrate=N/A speed=13.6x    frame= 4401 fps=328 q=-0.0 size=N/A time=00:03:03.60 bitrate=N/A speed=13.7x    frame= 4602 fps=330 q=-0.0 size=N/A time=00:03:11.94 bitrate=N/A speed=13.8x    frame= 4788 fps=332 q=-0.0 size=N/A time=00:03:19.69 bitrate=N/A speed=13.8x    frame= 4980 fps=333 q=-0.0 size=N/A time=00:03:27.70 bitrate=N/A speed=13.9x    frame= 5171 fps=334 q=-0.0 size=N/A time=00:03:35.67 bitrate=N/A speed=13.9x    frame= 5363 fps=336 q=-0.0 size=N/A time=00:03:43.68 bitrate=N/A speed=  14x    frame= 5558 fps=337 q=-0.0 size=N/A time=00:03:51.81 bitrate=N/A speed=  14x    frame= 5748 fps=337 q=-0.0 size=N/A time=00:03:59.73 bitrate=N/A speed=14.1x    frame= 5940 fps=339 q=-0.0 size=N/A time=00:04:07.74 bitrate=N/A speed=14.1x    frame= 6137 fps=340 q=-0.0 size=N/A time=00:04:15.96 bitrate=N/A speed=14.2x    frame= 6328 fps=341 q=-0.0 size=N/A time=00:04:23.93 bitrate=N/A speed=14.2x    frame= 6524 fps=342 q=-0.0 size=N/A time=00:04:32.10 bitrate=N/A speed=14.3x    frame= 6721 fps=343 q=-0.0 size=N/A time=00:04:40.32 bitrate=N/A speed=14.3x    frame= 6910 fps=343 q=-0.0 size=N/A time=00:04:48.20 bitrate=N/A speed=14.3x    frame= 7093 fps=344 q=-0.0 size=N/A time=00:04:55.83 bitrate=N/A speed=14.3x    frame= 7291 fps=345 q=-0.0 size=N/A time=00:05:04.09 bitrate=N/A speed=14.4x    frame= 7481 fps=345 q=-0.0 size=N/A time=00:05:12.02 bitrate=N/A speed=14.4x    frame= 7648 fps=345 q=-0.0 size=N/A time=00:05:18.98 bitrate=N/A speed=14.4x    frame= 7844 fps=345 q=-0.0 size=N/A time=00:05:27.16 bitrate=N/A speed=14.4x    frame= 8030 fps=346 q=-0.0 size=N/A time=00:05:34.91 bitrate=N/A speed=14.4x    frame= 8222 fps=346 q=-0.0 size=N/A time=00:05:42.92 bitrate=N/A speed=14.5x    frame= 8415 fps=347 q=-0.0 size=N/A time=00:05:50.97 bitrate=N/A speed=14.5x    frame= 8600 fps=347 q=-0.0 size=N/A time=00:05:58.69 bitrate=N/A speed=14.5x    frame= 8790 fps=348 q=-0.0 size=N/A time=00:06:06.61 bitrate=N/A speed=14.5x    frame= 8986 fps=348 q=-0.0 size=N/A time=00:06:14.79 bitrate=N/A speed=14.5x    frame= 9179 fps=349 q=-0.0 size=N/A time=00:06:22.84 bitrate=N/A speed=14.5x    frame= 9364 fps=349 q=-0.0 size=N/A time=00:06:30.55 bitrate=N/A speed=14.6x    frame= 9563 fps=350 q=-0.0 size=N/A time=00:06:38.85 bitrate=N/A speed=14.6x    frame= 9750 fps=350 q=-0.0 size=N/A time=00:06:46.65 bitrate=N/A speed=14.6x    frame= 9943 fps=350 q=-0.0 size=N/A time=00:06:54.70 bitrate=N/A speed=14.6x    frame=10123 fps=350 q=-0.0 size=N/A time=00:07:02.21 bitrate=N/A speed=14.6x    frame=10314 fps=351 q=-0.0 size=N/A time=00:07:10.17 bitrate=N/A speed=14.6x    frame=10493 fps=351 q=-0.0 size=N/A time=00:07:17.64 bitrate=N/A speed=14.6x    frame=10680 fps=351 q=-0.0 size=N/A time=00:07:25.44 bitrate=N/A speed=14.6x    frame=10860 fps=351 q=-0.0 size=N/A time=00:07:32.95 bitrate=N/A speed=14.6x    frame=11053 fps=351 q=-0.0 size=N/A time=00:07:41.00 bitrate=N/A speed=14.6x    frame=11231 fps=351 q=-0.0 size=N/A time=00:07:48.42 bitrate=N/A speed=14.6x    frame=11417 fps=351 q=-0.0 size=N/A time=00:07:56.18 bitrate=N/A speed=14.7x    frame=11613 fps=352 q=-0.0 size=N/A time=00:08:04.35 bitrate=N/A speed=14.7x    frame=11805 fps=352 q=-0.0 size=N/A time=00:08:12.36 bitrate=N/A speed=14.7x    frame=11995 fps=352 q=-0.0 size=N/A time=00:08:20.29 bitrate=N/A speed=14.7x    frame=12187 fps=353 q=-0.0 size=N/A time=00:08:28.29 bitrate=N/A speed=14.7x    frame=12380 fps=353 q=-0.0 size=N/A time=00:08:36.34 bitrate=N/A speed=14.7x    frame=12571 fps=353 q=-0.0 size=N/A time=00:08:44.31 bitrate=N/A speed=14.7x    frame=12768 fps=354 q=-0.0 size=N/A time=00:08:52.53 bitrate=N/A speed=14.7x    frame=12967 fps=354 q=-0.0 size=N/A time=00:09:00.83 bitrate=N/A speed=14.8x    frame=13162 fps=354 q=-0.0 size=N/A time=00:09:08.96 bitrate=N/A speed=14.8x    frame=13359 fps=355 q=-0.0 size=N/A time=00:09:17.18 bitrate=N/A speed=14.8x    frame=13555 fps=355 q=-0.0 size=N/A time=00:09:25.35 bitrate=N/A speed=14.8x    frame=13741 fps=355 q=-0.0 size=N/A time=00:09:33.11 bitrate=N/A speed=14.8x    frame=13944 fps=356 q=-0.0 size=N/A time=00:09:41.58 bitrate=N/A speed=14.8x    frame=14120 fps=355 q=-0.0 size=N/A time=00:09:48.92 bitrate=N/A speed=14.8x    frame=14307 fps=356 q=-0.0 size=N/A time=00:09:56.72 bitrate=N/A speed=14.8x    frame=14510 fps=356 q=-0.0 size=N/A time=00:10:05.18 bitrate=N/A speed=14.8x    frame=14696 fps=356 q=-0.0 size=N/A time=00:10:12.94 bitrate=N/A speed=14.8x    frame=14893 fps=356 q=-0.0 size=N/A time=00:10:21.16 bitrate=N/A speed=14.9x    frame=15076 fps=356 q=-0.0 size=N/A time=00:10:28.79 bitrate=N/A speed=14.9x    frame=15240 fps=356 q=-0.0 size=N/A time=00:10:35.63 bitrate=N/A speed=14.8x    frame=15431 fps=356 q=-0.0 size=N/A time=00:10:43.60 bitrate=N/A speed=14.8x    frame=15623 fps=356 q=-0.0 size=N/A time=00:10:51.60 bitrate=N/A speed=14.9x    frame=15821 fps=356 q=-0.0 size=N/A time=00:10:59.86 bitrate=N/A speed=14.9x    frame=16023 fps=357 q=-0.0 size=N/A time=00:11:08.29 bitrate=N/A speed=14.9x    frame=16220 fps=357 q=-0.0 size=N/A time=00:11:16.50 bitrate=N/A speed=14.9x    frame=16424 fps=357 q=-0.0 size=N/A time=00:11:25.01 bitrate=N/A speed=14.9x    frame=16612 fps=358 q=-0.0 size=N/A time=00:11:32.85 bitrate=N/A speed=14.9x    frame=16805 fps=358 q=-0.0 size=N/A time=00:11:40.90 bitrate=N/A speed=14.9x    frame=17002 fps=358 q=-0.0 size=N/A time=00:11:49.12 bitrate=N/A speed=14.9x    frame=17206 fps=358 q=-0.0 size=N/A time=00:11:57.63 bitrate=N/A speed=14.9x    frame=17398 fps=359 q=-0.0 size=N/A time=00:12:05.64 bitrate=N/A speed=  15x    frame=17592 fps=359 q=-0.0 size=N/A time=00:12:13.73 bitrate=N/A speed=  15x    frame=17783 fps=359 q=-0.0 size=N/A time=00:12:21.69 bitrate=N/A speed=  15x    frame=17975 fps=359 q=-0.0 size=N/A time=00:12:29.70 bitrate=N/A speed=  15x    frame=18166 fps=359 q=-0.0 size=N/A time=00:12:37.67 bitrate=N/A speed=  15x    frame=18344 fps=359 q=-0.0 size=N/A time=00:12:45.09 bitrate=N/A speed=  15x    frame=18533 fps=359 q=-0.0 size=N/A time=00:12:52.98 bitrate=N/A speed=  15x    frame=18731 fps=359 q=-0.0 size=N/A time=00:13:01.23 bitrate=N/A speed=  15x    frame=18931 fps=360 q=-0.0 size=N/A time=00:13:09.58 bitrate=N/A speed=  15x    frame=19126 fps=360 q=-0.0 size=N/A time=00:13:17.71 bitrate=N/A speed=  15x    frame=19325 fps=360 q=-0.0 size=N/A time=00:13:26.01 bitrate=N/A speed=  15x    frame=19529 fps=360 q=-0.0 size=N/A time=00:13:34.52 bitrate=N/A speed=  15x    frame=19724 fps=361 q=-0.0 size=N/A time=00:13:42.65 bitrate=N/A speed=  15x    frame=19922 fps=361 q=-0.0 size=N/A time=00:13:50.91 bitrate=N/A speed=  15x    frame=20122 fps=361 q=-0.0 size=N/A time=00:13:59.25 bitrate=N/A speed=15.1x    frame=20327 fps=361 q=-0.0 size=N/A time=00:14:07.80 bitrate=N/A speed=15.1x    frame=20508 fps=361 q=-0.0 size=N/A time=00:14:15.35 bitrate=N/A speed=15.1x    frame=20694 fps=361 q=-0.0 size=N/A time=00:14:23.11 bitrate=N/A speed=15.1x    frame=20897 fps=362 q=-0.0 size=N/A time=00:14:31.57 bitrate=N/A speed=15.1x    frame=21093 fps=362 q=-0.0 size=N/A time=00:14:39.75 bitrate=N/A speed=15.1x    frame=21292 fps=362 q=-0.0 size=N/A time=00:14:48.05 bitrate=N/A speed=15.1x    frame=21488 fps=362 q=-0.0 size=N/A time=00:14:56.22 bitrate=N/A speed=15.1x    frame=21676 fps=362 q=-0.0 size=N/A time=00:15:04.06 bitrate=N/A speed=15.1x    frame=21884 fps=362 q=-0.0 size=N/A time=00:15:12.74 bitrate=N/A speed=15.1x    frame=22084 fps=363 q=-0.0 size=N/A time=00:15:21.08 bitrate=N/A speed=15.1x    frame=22274 fps=363 q=-0.0 size=N/A time=00:15:29.01 bitrate=N/A speed=15.1x    frame=22469 fps=363 q=-0.0 size=N/A time=00:15:37.14 bitrate=N/A speed=15.1x    frame=22656 fps=363 q=-0.0 size=N/A time=00:15:44.94 bitrate=N/A speed=15.1x    frame=22850 fps=363 q=-0.0 size=N/A time=00:15:53.03 bitrate=N/A speed=15.1x    frame=23035 fps=363 q=-0.0 size=N/A time=00:16:00.75 bitrate=N/A speed=15.1x    frame=23231 fps=363 q=-0.0 size=N/A time=00:16:08.92 bitrate=N/A speed=15.1x    frame=23419 fps=363 q=-0.0 size=N/A time=00:16:16.76 bitrate=N/A speed=15.1x    frame=23613 fps=363 q=-0.0 size=N/A time=00:16:24.85 bitrate=N/A speed=15.1x    frame=23806 fps=363 q=-0.0 size=N/A time=00:16:32.90 bitrate=N/A speed=15.2x    frame=23998 fps=363 q=-0.0 size=N/A time=00:16:40.91 bitrate=N/A speed=15.2x    frame=24180 fps=363 q=-0.0 size=N/A time=00:16:48.50 bitrate=N/A speed=15.2x    frame=24380 fps=363 q=-0.0 size=N/A time=00:16:56.84 bitrate=N/A speed=15.2x    frame=24571 fps=364 q=-0.0 size=N/A time=00:17:04.81 bitrate=N/A speed=15.2x    frame=24770 fps=364 q=-0.0 size=N/A time=00:17:13.11 bitrate=N/A speed=15.2x    frame=24968 fps=364 q=-0.0 size=N/A time=00:17:21.37 bitrate=N/A speed=15.2x    frame=25161 fps=364 q=-0.0 size=N/A time=00:17:29.42 bitrate=N/A speed=15.2x    frame=25353 fps=364 q=-0.0 size=N/A time=00:17:37.43 bitrate=N/A speed=15.2x    frame=25544 fps=364 q=-0.0 size=N/A time=00:17:45.39 bitrate=N/A speed=15.2x    frame=25736 fps=364 q=-0.0 size=N/A time=00:17:53.40 bitrate=N/A speed=15.2x    frame=25935 fps=364 q=-0.0 size=N/A time=00:18:01.70 bitrate=N/A speed=15.2x    frame=26120 fps=364 q=-0.0 size=N/A time=00:18:09.42 bitrate=N/A speed=15.2x    frame=26308 fps=364 q=-0.0 size=N/A time=00:18:17.26 bitrate=N/A speed=15.2x    frame=26502 fps=364 q=-0.0 size=N/A time=00:18:25.35 bitrate=N/A speed=15.2x    frame=26694 fps=364 q=-0.0 size=N/A time=00:18:33.36 bitrate=N/A speed=15.2x    frame=26885 fps=364 q=-0.0 size=N/A time=00:18:41.32 bitrate=N/A speed=15.2x    frame=27066 fps=364 q=-0.0 size=N/A time=00:18:48.87 bitrate=N/A speed=15.2x    frame=27247 fps=364 q=-0.0 size=N/A time=00:18:56.42 bitrate=N/A speed=15.2x    frame=27435 fps=364 q=-0.0 size=N/A time=00:19:04.26 bitrate=N/A speed=15.2x    frame=27611 fps=364 q=-0.0 size=N/A time=00:19:11.60 bitrate=N/A speed=15.2x    frame=27797 fps=364 q=-0.0 size=N/A time=00:19:19.36 bitrate=N/A speed=15.2x    frame=27980 fps=364 q=-0.0 size=N/A time=00:19:26.99 bitrate=N/A speed=15.2x    frame=28172 fps=364 q=-0.0 size=N/A time=00:19:35.00 bitrate=N/A speed=15.2x    frame=28377 fps=364 q=-0.0 size=N/A time=00:19:43.55 bitrate=N/A speed=15.2x    frame=28567 fps=364 q=-0.0 size=N/A time=00:19:51.48 bitrate=N/A speed=15.2x    frame=28755 fps=364 q=-0.0 size=N/A time=00:19:59.32 bitrate=N/A speed=15.2x    frame=28927 fps=364 q=-0.0 size=N/A time=00:20:06.49 bitrate=N/A speed=15.2x    frame=29098 fps=364 q=-0.0 size=N/A time=00:20:13.62 bitrate=N/A speed=15.2x    frame=29279 fps=364 q=-0.0 size=N/A time=00:20:21.17 bitrate=N/A speed=15.2x    frame=29458 fps=364 q=-0.0 size=N/A time=00:20:28.64 bitrate=N/A speed=15.2x    frame=29628 fps=363 q=-0.0 size=N/A time=00:20:35.73 bitrate=N/A speed=15.2x    frame=29805 fps=363 q=-0.0 size=N/A time=00:20:43.11 bitrate=N/A speed=15.1x    frame=29973 fps=363 q=-0.0 size=N/A time=00:20:50.12 bitrate=N/A speed=15.1x    frame=30140 fps=363 q=-0.0 size=N/A time=00:20:57.08 bitrate=N/A speed=15.1x    frame=30327 fps=363 q=-0.0 size=N/A time=00:21:04.88 bitrate=N/A speed=15.1x    frame=30515 fps=363 q=-0.0 size=N/A time=00:21:12.72 bitrate=N/A speed=15.1x    frame=30707 fps=363 q=-0.0 size=N/A time=00:21:20.73 bitrate=N/A speed=15.1x    frame=30900 fps=363 q=-0.0 size=N/A time=00:21:28.78 bitrate=N/A speed=15.1x    frame=31084 fps=363 q=-0.0 size=N/A time=00:21:36.46 bitrate=N/A speed=15.1x    frame=31281 fps=363 q=-0.0 size=N/A time=00:21:44.67 bitrate=N/A speed=15.1x    frame=31466 fps=363 q=-0.0 size=N/A time=00:21:52.39 bitrate=N/A speed=15.1x    frame=31659 fps=363 q=-0.0 size=N/A time=00:22:00.44 bitrate=N/A speed=15.1x    frame=31837 fps=363 q=-0.0 size=N/A time=00:22:07.86 bitrate=N/A speed=15.1x    frame=32018 fps=363 q=-0.0 size=N/A time=00:22:15.41 bitrate=N/A speed=15.1x    frame=32208 fps=363 q=-0.0 size=N/A time=00:22:23.34 bitrate=N/A speed=15.1x    frame=32393 fps=363 q=-0.0 size=N/A time=00:22:31.05 bitrate=N/A speed=15.1x    frame=32588 fps=363 q=-0.0 size=N/A time=00:22:39.19 bitrate=N/A speed=15.1x    frame=32726 fps=362 q=-0.0 size=N/A time=00:22:44.94 bitrate=N/A speed=15.1x    frame=32880 fps=362 q=-0.0 size=N/A time=00:22:51.37 bitrate=N/A speed=15.1x    frame=33064 fps=362 q=-0.0 size=N/A time=00:22:59.04 bitrate=N/A speed=15.1x    frame=33249 fps=362 q=-0.0 size=N/A time=00:23:06.76 bitrate=N/A speed=15.1x    frame=33422 fps=362 q=-0.0 size=N/A time=00:23:13.97 bitrate=N/A speed=15.1x    frame=33573 fps=361 q=-0.0 size=N/A time=00:23:20.27 bitrate=N/A speed=15.1x    frame=33718 fps=361 q=-0.0 size=N/A time=00:23:26.32 bitrate=N/A speed=15.1x    frame=33838 fps=360 q=-0.0 size=N/A time=00:23:31.32 bitrate=N/A speed=  15x    frame=33974 fps=360 q=-0.0 size=N/A time=00:23:36.99 bitrate=N/A speed=  15x    frame=34135 fps=360 q=-0.0 size=N/A time=00:23:43.71 bitrate=N/A speed=  15x    frame=34288 fps=359 q=-0.0 size=N/A time=00:23:50.09 bitrate=N/A speed=  15x    frame=34405 fps=358 q=-0.0 size=N/A time=00:23:54.97 bitrate=N/A speed=14.9x    frame=34569 fps=358 q=-0.0 size=N/A time=00:24:01.81 bitrate=N/A speed=14.9x    [Parsed_psnr_16 @ 0000013864818700] PSNR y:48.995687 u:50.318627 v:50.374864 average:49.401042 min:38.059040 max:inf
[out#0/null @ 0000013857addec0] video:14903KiB audio:271276KiB subtitle:0KiB other streams:0KiB global headers:0KiB muxing overhead: unknown
frame=34683 fps=358 q=-0.0 Lsize=N/A time=00:24:06.57 bitrate=N/A speed=14.9x    
